<?xml version="1.0" encoding="UTF-8"?>
<svg id="Layer_1" data-name="Layer 1" xmlns="http://www.w3.org/2000/svg" width="40.6" height="41" version="1.1" viewBox="0 0 40.6 41">
  <defs>
    <style>
      .cls-1 {
        fill: #fff;
      }

      .cls-1, .cls-2 {
        stroke-width: 0px;
      }

      .cls-2 {
        fill: #c42032;
      }
    </style>
  </defs>
  <path class="cls-2" d="M26.5,22.9c-.4-1.6-3.3,0-3.3,2.5,0,2.4,2.7,3.3,4,2.8.6-.2,1.1-1.5,1.7-2.2-.9-.3-2-1.5-2.4-3.1Z"/>
  <path class="cls-2" d="M36.5,10.4C30.8,1.4,18.8-1.3,9.8,4.5.8,10.2-1.9,22.1,3.9,31.2c1.2,1.9,2.7,3.5,4.4,4.8.9-1.1,2.9-3.7,3.3-4.3.4-1.7-.4-5.8.8-9.5.3-.9-1.4-9.2-1.2-11.1.9-.3,2.6,1,3.6,4.1l1.9-10.8c2.8.7,2.8,3.8,2.1,8.9,0,0,6-7.4,6.6-7.8.6-.3,1.7,1.2,1,3-.6,1.6-4.7,8-4.6,9.9.9-.8,3.7-1.3,4.6-.8.8.4,3.6,4.1,3.6,4.1,0,1.8.3,2.6.2,3.5,0,0,0,.1,0,.2.3,0,.6.3.9.9.2.3,0,.5-.1,1.1-.2,6.5-8,7.7-11.1,8.9-.9.8-1.6,2.1-2.3,3.7,4.4.6,9.1-.2,13.1-2.8,9-5.7,11.7-17.7,6-26.7Z"/>
  <path class="cls-1" d="M28.9,26c.5.2.9,0,1.1-.6-.4,0-.7.2-1.1.6Z"/>
  <path class="cls-1" d="M30.8,27.4c0-.6.3-.8.1-1.1-.3-.6-.7-.8-.9-.9-.1.6-.5.8-1.1.6-.6.8-1.1,2-1.7,2.2-1.3.5-4.1-.4-4-2.8,0-2.4,2.9-4.1,3.3-2.5.4,1.6,1.6,2.8,2.4,3.1.3-.4.7-.7,1.1-.6,0,0,0,0,0-.2,0-.9-.3-1.8-.2-3.5,0,0-2.7-3.7-3.6-4.1-.9-.4-3.8,0-4.6.8,0-1.9,4.1-8.3,4.6-9.9.6-1.8-.4-3.3-1-3-.6.3-6.6,7.8-6.6,7.8.7-5,.7-8.2-2.1-8.9l-1.9,10.8c-1-3.1-2.7-4.5-3.6-4.1-.2,1.9,1.5,10.2,1.2,11.1-1.2,3.7-.4,7.8-.8,9.5-.4.6-2.4,3.2-3.3,4.3,2.7,2.1,5.9,3.5,9.2,3.9.7-1.5,1.4-2.8,2.3-3.7,3.1-1.2,10.9-2.4,11.1-8.9Z"/>
</svg>